# xmcd
#
# Track frame offsets: 
#        187
#        17462
#        38845
#        60000
#        80875
#        100705
#        125982
#        147870
#        168975
#        186262
#        205887
#        226287
#        247257
#        269442
#        292375
#        312175
#
# Disc length: 4498 seconds
#
# Revision: 0
# Processed by: cddbd v1.5.2PL0 Copyright (c) Steve Scherf et al.
# Submitted via: ExactAudioCopyFreeDBPlugin 1.0
#
DISCID=eb119010
DTITLE=堀内孝雄 - スーパーベスト～夢の道草
DYEAR=1994
DGENRE=Pop
TTITLE0=夢の道草
TTITLE1=永遠に
TTITLE2=影法師
TTITLE3=さよならだけの人生に
TTITLE4=ガキの頃のように
TTITLE5=都会の天使たち
TTITLE6=遥かな轍
TTITLE7=川は泣いている
TTITLE8=恋唄綴り
TTITLE9=憧れ遊び
TTITLE10=冗談じゃねえ
TTITLE11=野郎たちの挽歌
TTITLE12=夢見鶏
TTITLE13=恋文
TTITLE14=愛しき日々
TTITLE15=愛しき日々
EXTD=
EXTT0=
EXTT1=
EXTT2=
EXTT3=
EXTT4=
EXTT5=
EXTT6=
EXTT7=
EXTT8=
EXTT9=
EXTT10=
EXTT11=
EXTT12=
EXTT13=
EXTT14=
EXTT15=
PLAYORDER=
